<?xml version="1.0" encoding="UTF-8" standalone="no"?>
<!DOCTYPE svg PUBLIC "-//W3C//DTD SVG 1.1//EN"
 "http://www.w3.org/Graphics/SVG/1.1/DTD/svg11.dtd">
<!-- Generated by graphviz version 12.2.1 (20241206.2353)
 -->
<!-- Pages: 1 -->
<svg width="860pt" height="576pt"
 viewBox="0.00 0.00 860.05 576.00" xmlns="http://www.w3.org/2000/svg" xmlns:xlink="http://www.w3.org/1999/xlink">
<g id="graph0" class="graph" transform="scale(0.986301 0.986301) rotate(0) translate(4 580)">
<polygon fill="white" stroke="none" points="-4,4 -4,-580 868,-580 868,4 -4,4"/>
<g id="clust1" class="cluster">
<title>cluster_core</title>
<polygon fill="#e8f5e9" stroke="black" points="0,-427.63 0,-567.4 379.44,-567.4 379.44,-427.63 0,-427.63"/>
<text text-anchor="middle" x="189.72" y="-550.1" font-family="Arial" font-size="14.00">Core Architecture Components</text>
</g>
<!-- analyzer -->
<g id="node1" class="node">
<title>analyzer</title>
<polygon fill="#e1f5fe" stroke="black" points="610.5,-165.27 543.5,-165.27 543.5,-125.77 610.5,-125.77 610.5,-165.27"/>
<text text-anchor="middle" x="577" y="-147.97" font-family="Arial" font-size="14.00">analyzer</text>
<text text-anchor="middle" x="577" y="-132.22" font-family="Arial" font-size="14.00">(1 files)</text>
</g>
<!-- api -->
<g id="node2" class="node">
<title>api</title>
<polygon fill="#e1f5fe" stroke="black" points="607.12,-103.27 546.88,-103.27 546.88,-63.77 607.12,-63.77 607.12,-103.27"/>
<text text-anchor="middle" x="577" y="-85.97" font-family="Arial" font-size="14.00">api</text>
<text text-anchor="middle" x="577" y="-70.22" font-family="Arial" font-size="14.00">(9 files)</text>
</g>
<!-- api/auth -->
<g id="node10" class="node">
<title>api/auth</title>
<polygon fill="#fff9c4" stroke="black" points="840,-159.52 786,-159.52 786,-123.52 840,-123.52 840,-159.52"/>
<text text-anchor="middle" x="813" y="-136.09" font-family="Arial" font-size="14.00">auth</text>
</g>
<!-- api&#45;&gt;api/auth -->
<g id="edge1" class="edge">
<title>api&#45;&gt;api/auth</title>
<path fill="none" stroke="black" stroke-dasharray="5,2" d="M607.16,-90.74C649.52,-101.24 728.06,-120.71 774.61,-132.25"/>
<polygon fill="black" stroke="black" points="773.7,-135.63 784.25,-134.64 775.39,-128.83 773.7,-135.63"/>
</g>
<!-- api/cache -->
<g id="node11" class="node">
<title>api/cache</title>
<polygon fill="#fff9c4" stroke="black" points="840,-101.52 786,-101.52 786,-65.52 840,-65.52 840,-101.52"/>
<text text-anchor="middle" x="813" y="-78.09" font-family="Arial" font-size="14.00">cache</text>
</g>
<!-- api&#45;&gt;api/cache -->
<g id="edge2" class="edge">
<title>api&#45;&gt;api/cache</title>
<path fill="none" stroke="black" stroke-dasharray="5,2" d="M607.16,-83.52C649.43,-83.52 727.73,-83.52 774.32,-83.52"/>
<polygon fill="black" stroke="black" points="774.21,-87.02 784.21,-83.52 774.21,-80.02 774.21,-87.02"/>
</g>
<!-- api/routes -->
<g id="node12" class="node">
<title>api/routes</title>
<polygon fill="#fff9c4" stroke="black" points="840,-43.52 786,-43.52 786,-7.52 840,-7.52 840,-43.52"/>
<text text-anchor="middle" x="813" y="-20.09" font-family="Arial" font-size="14.00">routes</text>
</g>
<!-- api&#45;&gt;api/routes -->
<g id="edge3" class="edge">
<title>api&#45;&gt;api/routes</title>
<path fill="none" stroke="black" stroke-dasharray="5,2" d="M607.16,-76.29C649.52,-65.79 728.06,-46.32 774.61,-34.78"/>
<polygon fill="black" stroke="black" points="775.39,-38.2 784.25,-32.39 773.7,-31.4 775.39,-38.2"/>
</g>
<!-- bundler -->
<g id="node3" class="node">
<title>bundler</title>
<polygon fill="#e1f5fe" stroke="black" points="219.5,-165.27 158.5,-165.27 158.5,-125.77 219.5,-125.77 219.5,-165.27"/>
<text text-anchor="middle" x="189" y="-147.97" font-family="Arial" font-size="14.00">bundler</text>
<text text-anchor="middle" x="189" y="-132.22" font-family="Arial" font-size="14.00">(1 files)</text>
</g>
<!-- change_detection -->
<g id="node4" class="node">
<title>change_detection</title>
<polygon fill="#e1f5fe" stroke="black" points="638.25,-41.27 515.75,-41.27 515.75,-1.77 638.25,-1.77 638.25,-41.27"/>
<text text-anchor="middle" x="577" y="-23.97" font-family="Arial" font-size="14.00">change_detection</text>
<text text-anchor="middle" x="577" y="-8.22" font-family="Arial" font-size="14.00">(1 files)</text>
</g>
<!-- cli -->
<g id="node5" class="node">
<title>cli</title>
<polygon fill="#e1f5fe" stroke="black" points="222.88,-103.27 155.12,-103.27 155.12,-63.77 222.88,-63.77 222.88,-103.27"/>
<text text-anchor="middle" x="189" y="-85.97" font-family="Arial" font-size="14.00">cli</text>
<text text-anchor="middle" x="189" y="-70.22" font-family="Arial" font-size="14.00">(13 files)</text>
</g>
<!-- cli&#45;&gt;analyzer -->
<g id="edge6" class="edge">
<title>cli&#45;&gt;analyzer</title>
<path fill="none" stroke="black" d="M223.24,-88.86C292.82,-100.03 453.78,-125.89 531.9,-138.43"/>
<polygon fill="black" stroke="black" points="531.32,-141.88 541.75,-140.02 532.43,-134.97 531.32,-141.88"/>
<text text-anchor="middle" x="420" y="-122.52" font-family="Arial" font-size="14.00">3</text>
</g>
<!-- cli&#45;&gt;api -->
<g id="edge7" class="edge">
<title>cli&#45;&gt;api</title>
<path fill="none" stroke="black" d="M223.24,-83.52C293.86,-83.52 458.63,-83.52 535.35,-83.52"/>
<polygon fill="black" stroke="black" points="534.93,-87.02 544.93,-83.52 534.93,-80.02 534.93,-87.02"/>
<text text-anchor="middle" x="420" y="-85.97" font-family="Arial" font-size="14.00">1</text>
</g>
<!-- cli&#45;&gt;change_detection -->
<g id="edge8" class="edge">
<title>cli&#45;&gt;change_detection</title>
<path fill="none" stroke="black" d="M223.24,-78.18C285.4,-68.19 420.48,-46.5 504.28,-33.04"/>
<polygon fill="black" stroke="black" points="504.68,-36.52 514,-31.47 503.57,-29.6 504.68,-36.52"/>
<text text-anchor="middle" x="420" y="-49.41" font-family="Arial" font-size="14.00">2</text>
</g>
<!-- extractors -->
<g id="node6" class="node">
<title>extractors</title>
<polygon fill="#e1f5fe" stroke="black" points="226.62,-228.27 151.38,-228.27 151.38,-188.77 226.62,-188.77 226.62,-228.27"/>
<text text-anchor="middle" x="189" y="-210.97" font-family="Arial" font-size="14.00">extractors</text>
<text text-anchor="middle" x="189" y="-195.22" font-family="Arial" font-size="14.00">(2 files)</text>
</g>
<!-- extractors/python -->
<g id="node13" class="node">
<title>extractors/python</title>
<polygon fill="#fff9c4" stroke="black" points="605.25,-226.52 548.75,-226.52 548.75,-190.52 605.25,-190.52 605.25,-226.52"/>
<text text-anchor="middle" x="577" y="-203.09" font-family="Arial" font-size="14.00">python</text>
</g>
<!-- extractors&#45;&gt;extractors/python -->
<g id="edge4" class="edge">
<title>extractors&#45;&gt;extractors/python</title>
<path fill="none" stroke="black" stroke-dasharray="5,2" d="M227.01,-208.52C300.27,-208.52 463.08,-208.52 537.52,-208.52"/>
<polygon fill="black" stroke="black" points="537.17,-212.02 547.17,-208.52 537.17,-205.02 537.17,-212.02"/>
</g>
<!-- metrics -->
<g id="node7" class="node">
<title>metrics</title>
<polygon fill="#e1f5fe" stroke="black" points="219.12,-290.27 158.88,-290.27 158.88,-250.77 219.12,-250.77 219.12,-290.27"/>
<text text-anchor="middle" x="189" y="-272.97" font-family="Arial" font-size="14.00">metrics</text>
<text text-anchor="middle" x="189" y="-257.22" font-family="Arial" font-size="14.00">(1 files)</text>
</g>
<!-- summary -->
<g id="node8" class="node">
<title>summary</title>
<polygon fill="#e1f5fe" stroke="black" points="225.5,-353.27 152.5,-353.27 152.5,-313.77 225.5,-313.77 225.5,-353.27"/>
<text text-anchor="middle" x="189" y="-335.97" font-family="Arial" font-size="14.00">summary</text>
<text text-anchor="middle" x="189" y="-320.22" font-family="Arial" font-size="14.00">(2 files)</text>
</g>
<!-- visualization -->
<g id="node9" class="node">
<title>visualization</title>
<polygon fill="#e1f5fe" stroke="black" points="233.75,-415.27 144.25,-415.27 144.25,-375.77 233.75,-375.77 233.75,-415.27"/>
<text text-anchor="middle" x="189" y="-397.97" font-family="Arial" font-size="14.00">visualization</text>
<text text-anchor="middle" x="189" y="-382.22" font-family="Arial" font-size="14.00">(3 files)</text>
</g>
<!-- visualization/graph -->
<g id="node14" class="node">
<title>visualization/graph</title>
<polygon fill="#fff9c4" stroke="black" points="604,-413.52 550,-413.52 550,-377.52 604,-377.52 604,-413.52"/>
<text text-anchor="middle" x="577" y="-390.09" font-family="Arial" font-size="14.00">graph</text>
</g>
<!-- visualization&#45;&gt;visualization/graph -->
<g id="edge5" class="edge">
<title>visualization&#45;&gt;visualization/graph</title>
<path fill="none" stroke="black" stroke-dasharray="5,2" d="M233.9,-395.52C310.46,-395.52 467.04,-395.52 538.7,-395.52"/>
<polygon fill="black" stroke="black" points="538.33,-399.02 548.33,-395.52 538.33,-392.02 538.33,-399.02"/>
</g>
<!-- cli/cli.py -->
<g id="node15" class="node">
<title>cli/cli.py</title>
<polygon fill="#bbdefb" stroke="black" points="216,-473.52 162,-473.52 162,-437.52 216,-437.52 216,-473.52"/>
<text text-anchor="middle" x="189" y="-450.09" font-family="Arial" font-size="14.00">CLI</text>
</g>
<!-- cli/main.py -->
<g id="node16" class="node">
<title>cli/main.py</title>
<polygon fill="#bbdefb" stroke="black" points="222.5,-531.52 155.5,-531.52 155.5,-495.52 222.5,-495.52 222.5,-531.52"/>
<text text-anchor="middle" x="189" y="-508.09" font-family="Arial" font-size="14.00">MainCLI</text>
</g>
</g>
</svg>
